<?xml version="1.0" encoding="UTF-8"?>
<svg id="Layer_2" xmlns="http://www.w3.org/2000/svg" viewBox="0 0 556.24 160.77">
  <defs>
    <style>
      .cls-1 {
        fill: #e2e2e2;
      }

      .cls-2 {
        fill: #e4007c;
      }
    </style>
  </defs>
  <g id="Layer_1-2" data-name="Layer_1">
    <g>
      <path class="cls-1" d="M139.89,47.04c13.84-13.84,34.12-17.32,51.2-10.44,1.3.52,2.79.19,3.78-.8l19.22-19.22c1.65-1.65,1.3-4.43-.72-5.59-30.66-17.66-70.51-13.39-96.72,12.83-26.21,26.21-30.49,66.06-12.83,96.72,1.16,2.02,3.95,2.37,5.59.72l19.22-19.22c.99-.99,1.33-2.48.8-3.78-6.88-17.08-3.4-37.36,10.44-51.2Z"/>
      <path class="cls-2" d="M230.1,137.25c26.21-26.21,30.49-66.06,12.83-96.72-1.16-2.02-3.95-2.37-5.59-.72l-19.22,19.22c-.99.99-1.33,2.48-.8,3.78,6.88,17.08,3.4,37.36-10.44,51.2s-34.12,17.32-51.2,10.44c-1.3-.52-2.79-.19-3.78.8l-19.22,19.22c-1.65,1.65-1.3,4.43.72,5.59,30.66,17.66,70.51,13.39,96.72-12.83Z"/>
    </g>
    <g>
      <path class="cls-1" d="M75.52,0C58.6,0,40.45,4.63,35.47,18.66V2.29H0v155.33h36.62v-91.54c0-19.73,14.87-33.75,35.19-33.75,6.01,0,13.74,1.15,16.88,2.29V.86c-3.43-.57-9.15-.86-13.16-.86h-.01Z"/>
      <path class="cls-2" d="M336.55,27.46c-15.73,0-27.17,7.73-26.89,18.31-.29,8,6.29,14.01,22.03,17.74l26.31,5.43c29.47,6.58,43.48,20.03,43.76,42.34-.29,29.18-25.74,49.49-66.36,49.49s-62.93-17.74-66.65-47.49h37.18c2.29,13.16,12.59,19.73,29.47,19.73s29.18-7.15,29.18-18.6c0-8.86-7.15-14.58-22.6-18.02l-24.89-5.43c-28.89-5.72-43.76-20.88-43.76-43.19,0-28.61,24.6-47.49,62.65-47.49s60.08,18.02,62.65,46.34h-34.61c-2.29-11.73-12.02-19.17-27.46-19.17h-.01Z"/>
      <path class="cls-2" d="M480.15,66.93c10.73-.72,33.04-2.01,39.76-2.29v-12.3c0-15.44-10.01-24.32-28.03-24.32-16.3,0-26.31,7.44-29.18,18.6h-35.19C430.08,20.32,453.82.29,492.73.29c29.47,0,63.51,12.02,63.51,53.5v103.84h-34.9v-21.45h-1.15c-6.87,13.16-21.45,24.6-45.77,24.6-29.75,0-52.06-16.3-52.06-46.92,0-34.9,28.89-45.2,57.79-46.92h-.01ZM483.87,133.87c22.03,0,36.33-14.58,36.33-32.05v-12.88l-34.33,2.29c-17.45,1.43-28.32,8.59-28.32,22.31s10.87,20.32,26.31,20.32h.01Z"/>
    </g>
  </g>
</svg>