<?xml version="1.0" encoding="UTF-8"?>
<svg id="Layer_2" xmlns="http://www.w3.org/2000/svg" viewBox="0 0 160.42 160.42">
  <defs>
    <style>
      .cls-1 {
        fill: #e2e2e2;
      }

      .cls-2 {
        fill: #e4007c;
      }
    </style>
  </defs>
  <g id="Layer_1-2" data-name="Layer_1">
    <g>
      <path class="cls-1" d="M46.73,46.73c13.84-13.84,34.12-17.32,51.2-10.44,1.3.52,2.79.19,3.78-.8l19.22-19.22c1.65-1.65,1.3-4.43-.72-5.59C89.55-7,49.71-2.72,23.49,23.49-2.72,49.71-7,89.55,10.66,120.21c1.16,2.02,3.95,2.37,5.59.72l19.22-19.22c.99-.99,1.33-2.48.8-3.78-6.88-17.08-3.4-37.36,10.44-51.2Z"/>
      <path class="cls-2" d="M136.93,136.93c26.21-26.21,30.49-66.06,12.83-96.72-1.16-2.02-3.95-2.37-5.59-.72l-19.22,19.22c-.99.99-1.33,2.48-.8,3.78,6.88,17.08,3.4,37.36-10.44,51.2s-34.12,17.32-51.2,10.44c-1.3-.52-2.79-.19-3.78.8l-19.22,19.22c-1.65,1.65-1.3,4.43.72,5.59,30.66,17.66,70.51,13.39,96.72-12.83Z"/>
    </g>
  </g>
</svg>