<svg xmlns="http://www.w3.org/2000/svg" xmlns:xlink="http://www.w3.org/1999/xlink" id="Layer_1" x="0px" y="0px" viewBox="0 0 526.5 120" style="enable-background:new 0 0 526.5 120;" xml:space="preserve"><style type="text/css">	.st0{fill:#BBCE32;}</style><g>	<path d="M55,43.4c3.1,0,7.7,0.6,10.3,1l0.2-3.7c-2.5-0.5-6.8-1.3-10.9-1.3c-11.9,0-14.4,7.1-14.4,20.4c0,13,2.6,20.2,14.4,20.2   c3.8,0,8.1-0.6,10.9-1.2L65.3,75c-2.7,0.5-7,1-10.2,1c-9,0-10.4-5.2-10.4-16.3C44.7,48.6,46.2,43.4,55,43.4z"></path>	<path d="M78.6,40L67.7,79.5H72l2.9-10.2h16.9l2.9,10.2H99L88.1,40H78.6z M75.9,65.4l6-21.6h3l6,21.6H75.9z"></path>	<polygon points="122.9,73.4 111.7,40 103.8,40 103.8,79.5 108.2,79.5 108.2,44.7 108.9,44.7 120.4,78.1 125.3,78.1 136.8,44.7    137.6,44.7 137.6,79.5 142,79.5 142,40 134,40  "></polygon>	<path d="M164.7,40h-14.4v39.5h4.4V66.2h10c8.6,0,12.6-4.8,12.6-13.5C177.3,44.2,173.3,40,164.7,40z M164.6,62.3h-10V43.9h10   c5.8,0,8.2,2.8,8.2,8.8C172.8,58.8,170.4,62.3,164.6,62.3z"></path>	<path d="M205.6,67.6c0,6.2-3.5,8.6-9.6,8.6c-5.8,0-9.2-2.4-9.2-8.6V40h-4.4v27.5c0,9.1,5,12.5,13.6,12.5c9,0,14-3.5,14-12.5V40   h-4.3v27.6H205.6z"></path>	<path d="M229.9,57.2c-6.9-1.5-9.6-2.4-9.6-7.5c0-4.4,3-6.4,8.6-6.4c3.3,0,11.2,1,11.2,1l0.4-3.7c0,0-7.2-1.1-11.9-1.1   c-7.7,0-12.7,3-12.7,10.6c0,7.5,4.1,9.5,12.3,11.2c6.4,1.3,8.8,2.5,8.8,7c0,5.5-2.9,7.9-8.4,7.9c-4,0-11.8-1-11.8-1l-0.5,3.6   c0,0,7.8,1.3,12.5,1.3c7.8,0,12.6-3.4,12.6-12.1C241.2,60.9,237.7,59,229.9,57.2z"></path>	<polygon points="260.1,78.7 268,78.7 268,65 281.8,65 281.8,58.1 268,58.1 268,46.7 284.9,46.7 284.9,39.9 260.1,39.9  "></polygon>	<path d="M303.4,39.2c-12.2,0-16.1,7.2-16.1,20.3s3.9,19.8,16.1,19.8s16.1-6.7,16.1-19.8S315.6,39.2,303.4,39.2z M303.4,72.5   c-6.4,0-8-4-8-13s1.6-13.5,8-13.5s8,4.5,8,13.5C311.3,68.5,309.8,72.5,303.4,72.5z"></path>	<path d="M346.1,65.7c0,4.6-2.3,6.8-6.9,6.8s-6.9-2.2-6.9-6.8V39.9h-7.9v25.7c0,9.7,5.1,13.8,14.8,13.8c9.7,0,14.8-4.1,14.8-13.8   V39.9h-7.9V65.7z"></path>	<polygon points="383.8,71.8 383.2,71.8 373.9,39.9 360.6,39.9 360.6,78.7 368.5,78.7 368.5,46.7 369,46.7 378.7,78.7 391.7,78.7    391.7,39.9 383.8,39.9  "></polygon>	<path d="M411.8,39.9h-13.1v38.8h13.1c13.9,0,16.5-6.9,16.5-20.1C428.2,45.6,425.3,39.9,411.8,39.9z M411.8,71.8h-5.2V46.7h5.2   c7.6,0,8.4,3.3,8.4,11.8C420.1,67.1,419.4,71.8,411.8,71.8z"></path>	<polygon points="433.6,78.7 458.7,78.7 458.7,71.8 441.5,71.8 441.5,62.5 455.3,62.5 455.3,55.8 441.5,55.8 441.5,46.7 458.7,46.7    458.7,39.9 433.6,39.9  "></polygon>	<path d="M492.5,52.7c0-8.8-4.8-12.8-13.7-12.8h-15.1v38.8h7.9v-13h7.6l4.5,13h8.6l-5.5-14.8C490.4,61.6,492.5,58,492.5,52.7z    M479,58.9h-7.3V46.6h7.2c3.8,0,5.6,2.5,5.6,6.2C484.5,56.2,482.9,58.9,479,58.9z"></path>	<path d="M511.5,55.5c-6.5-2.1-8-2.9-8-5.4c0-2.6,2-4.1,6.2-4.1c3.3,0,11.3,1,11.3,1l0.6-6.2c0,0-7.6-1.5-12.8-1.5   c-7.9,0-13.2,3.5-13.2,11.5c0,6.2,3.3,9.2,12,11.7c5.6,1.6,7,2.7,7,5.1c0,3-1.8,5-6,5c-4,0-11.7-1-11.7-1l-0.8,6.1   c0,0,7.6,1.8,12.9,1.8c7.6,0,13.4-3.9,13.4-12.4C522.4,60.5,519.9,58.2,511.5,55.5z"></path></g><polygon class="st0" points="259.1,118.9 249,106.8 12.4,106.8 12.4,12.5 90.1,12.5 80,0.3 12.4,0.3 12.4,0.3 0.2,0.3 0.2,118.9 "></polygon><path id="white" class="st0" d="M0,0"></path></svg>